<svg xmlns="http://www.w3.org/2000/svg" viewBox="0 0 1024 1024" width="1024" height="1024">
  <defs>
    <linearGradient id="bg" x1="0" y1="0" x2="1" y2="1">
      <stop offset="0%" stop-color="#252832"/>
      <stop offset="44%" stop-color="#151821"/>
      <stop offset="100%" stop-color="#2c2438"/>
    </linearGradient>
    <linearGradient id="surface" x1="0" y1="0" x2="0" y2="1">
      <stop offset="0%" stop-color="#ffffff" stop-opacity="0.09"/>
      <stop offset="44%" stop-color="#ffffff" stop-opacity="0.015"/>
      <stop offset="100%" stop-color="#000000" stop-opacity="0.12"/>
    </linearGradient>
    <radialGradient id="glow" cx="38%" cy="28%" r="72%">
      <stop offset="0%" stop-color="#b7a2ff" stop-opacity="0.24"/>
      <stop offset="54%" stop-color="#8f73e8" stop-opacity="0.07"/>
      <stop offset="100%" stop-color="#8f73e8" stop-opacity="0"/>
    </radialGradient>
    <radialGradient id="warm" cx="78%" cy="82%" r="68%">
      <stop offset="0%" stop-color="#d6c2ff" stop-opacity="0.15"/>
      <stop offset="64%" stop-color="#d6c2ff" stop-opacity="0.025"/>
      <stop offset="100%" stop-color="#d6c2ff" stop-opacity="0"/>
    </radialGradient>
    <linearGradient id="g1" x1="0" y1="0" x2="1" y2="1">
      <stop offset="0%" stop-color="#b59cff"/>
      <stop offset="100%" stop-color="#8d6ee9"/>
    </linearGradient>
    <linearGradient id="g2" x1="0" y1="0" x2="1" y2="1">
      <stop offset="0%" stop-color="#f0e7ff"/>
      <stop offset="100%" stop-color="#c8b5fb"/>
    </linearGradient>
    <filter id="shadow" x="-20%" y="-20%" width="140%" height="140%">
      <feDropShadow dx="0" dy="10" stdDeviation="18" flood-color="#000" flood-opacity="0.38"/>
    </filter>
  </defs>
  <rect x="42" y="42" width="940" height="940" rx="210" fill="url(#bg)"/>
  <rect x="42" y="42" width="940" height="940" rx="210" fill="url(#glow)"/>
  <rect x="42" y="42" width="940" height="940" rx="210" fill="url(#warm)"/>
  <rect x="42" y="42" width="940" height="940" rx="210" fill="url(#surface)"/>
  <rect x="58" y="58" width="908" height="908" rx="196" fill="none" stroke="#ffffff" stroke-opacity="0.08" stroke-width="5"/>
  <rect x="198" y="198" width="340" height="340" rx="78" transform="rotate(45 368 368)" fill="url(#g1)" filter="url(#shadow)"/>
  <rect x="486" y="486" width="340" height="340" rx="78" transform="rotate(45 656 656)" fill="url(#g2)" filter="url(#shadow)"/>
</svg>
